<?xml version="1.0" encoding="UTF-8" standalone="no"?><svg xmlns="http://www.w3.org/2000/svg" xmlns:xlink="http://www.w3.org/1999/xlink" contentStyleType="text/css" height="989px" preserveAspectRatio="none" style="width:1332px;height:989px;background:#FFFFFF;" version="1.1" viewBox="0 0 1332 989" width="1332px" zoomAndPan="magnify"><defs/><g><!--MD5=[4b19051f20d898cc3a48e0dc03e874c1]
cluster Render--><g id="cluster_Render"><rect fill="#E6E6FA" height="642.5" rx="2.5" ry="2.5" style="stroke:#000000;stroke-width:1.5;" width="424" x="7" y="340.5"/><path d="M73,340.5 L73,349.7969 L63,359.7969 L7,359.7969 " fill="none" style="stroke:#000000;stroke-width:1.5;"/><text fill="#000000" font-family="sans-serif" font-size="14" font-weight="bold" lengthAdjust="spacing" textLength="56" x="10" y="354.4951">Render</text></g><!--MD5=[974efc182f369f5498e12033a2e3c168]
cluster Window--><g id="cluster_Window"><rect fill="#E6E6FA" height="682" rx="2.5" ry="2.5" style="stroke:#000000;stroke-width:1.5;" width="503" x="699" y="7"/><path d="M772,7 L772,16.2969 L762,26.2969 L699,26.2969 " fill="none" style="stroke:#000000;stroke-width:1.5;"/><text fill="#000000" font-family="sans-serif" font-size="14" font-weight="bold" lengthAdjust="spacing" textLength="63" x="702" y="20.9951">Window</text></g><!--MD5=[d64883541e3d62e3241c4d12decf100d]
cluster Application--><g id="cluster_Application"><rect fill="#E6E6FA" height="425" rx="2.5" ry="2.5" style="stroke:#000000;stroke-width:1.5;" width="220" x="455" y="320"/><path d="M558,320 L558,329.2969 L548,339.2969 L455,339.2969 " fill="none" style="stroke:#000000;stroke-width:1.5;"/><text fill="#000000" font-family="sans-serif" font-size="14" font-weight="bold" lengthAdjust="spacing" textLength="93" x="458" y="333.9951">Application</text></g><!--MD5=[1374ace942bf9ff4500fb76520b59a54]
class RenderCommandImpl--><g id="elem_RenderCommandImpl"><rect codeLine="14" fill="#F1F1F1" height="121.4844" id="RenderCommandImpl" rx="2.5" ry="2.5" style="stroke:#181818;stroke-width:0.5;" width="189" x="124.5" y="568"/><ellipse cx="139.5" cy="584" fill="#B4A7E5" rx="11" ry="11" style="stroke:#181818;stroke-width:1.0;"/><path d="M140.4531,580.7813 L142.1719,580.7813 C142.5625,580.7813 142.75,580.75 142.875,580.6719 C143.1406,580.5156 143.2813,580.2344 143.2813,579.9375 C143.2813,579.6719 143.1719,579.4063 142.9375,579.2344 C142.7656,579.125 142.625,579.0938 142.1719,579.0938 L137.0313,579.0938 C136.5938,579.0938 136.4688,579.1094 136.3125,579.2031 C136.0625,579.3594 135.9063,579.6563 135.9063,579.9375 C135.9063,580.2188 136.0469,580.4688 136.2656,580.6406 C136.4219,580.75 136.6094,580.7813 137.0313,580.7813 L138.75,580.7813 L138.75,587.2969 L137.0313,587.2969 C136.5938,587.2969 136.4688,587.3125 136.3125,587.4219 C136.0625,587.5781 135.9063,587.8594 135.9063,588.1563 C135.9063,588.4063 136.0469,588.6719 136.2656,588.8281 C136.4219,588.9531 136.625,589 137.0313,589 L142.1719,589 C142.9219,589 143.2813,588.7188 143.2813,588.1563 C143.2813,587.875 143.1719,587.625 142.9375,587.4531 C142.7656,587.3281 142.625,587.2969 142.1719,587.2969 L140.4531,587.2969 L140.4531,580.7813 Z " fill="#000000"/><text fill="#000000" font-family="sans-serif" font-size="14" font-style="italic" lengthAdjust="spacing" textLength="157" x="153.5" y="588.8467">RenderCommandImpl</text><line style="stroke:#181818;stroke-width:0.5;" x1="125.5" x2="312.5" y1="600" y2="600"/><text fill="#000000" font-family="sans-serif" font-size="14" lengthAdjust="spacing" textLength="81" x="130.5" y="616.9951">void Clear()</text><text fill="#000000" font-family="sans-serif" font-size="14" lengthAdjust="spacing" textLength="144" x="130.5" y="633.292">void SetClearColor()</text><text fill="#000000" font-family="sans-serif" font-size="14" lengthAdjust="spacing" textLength="167" x="130.5" y="649.5889">void DrawVertexArray()</text><text fill="#000000" font-family="sans-serif" font-size="14" lengthAdjust="spacing" textLength="137" x="130.5" y="665.8857">void DrawIndexed()</text><text fill="#000000" font-family="sans-serif" font-size="14" lengthAdjust="spacing" textLength="25" x="130.5" y="682.1826">...()</text></g><!--MD5=[fdf6f52109b06d44fbd497eea6643444]
class OpenGLRenderCommand--><g id="elem_OpenGLRenderCommand"><rect fill="#F1F1F1" height="32" id="OpenGLRenderCommand" rx="2.5" ry="2.5" style="stroke:#181818;stroke-width:0.5;" width="215" x="111.5" y="375.5"/><ellipse cx="126.5" cy="391.5" fill="#ADD1B2" rx="11" ry="11" style="stroke:#181818;stroke-width:1.0;"/><path d="M128.8438,387.1719 C127.9063,386.7344 127.3125,386.5938 126.4375,386.5938 C123.8125,386.5938 121.8125,388.6719 121.8125,391.3906 L121.8125,392.5156 C121.8125,395.0938 123.9219,396.9844 126.8125,396.9844 C128.0313,396.9844 129.1875,396.6875 129.9375,396.1406 C130.5156,395.7344 130.8438,395.2813 130.8438,394.8906 C130.8438,394.4375 130.4531,394.0469 129.9844,394.0469 C129.7656,394.0469 129.5625,394.125 129.375,394.3125 C128.9219,394.7969 128.9219,394.7969 128.7344,394.8906 C128.3125,395.1563 127.625,395.2813 126.8594,395.2813 C124.8125,395.2813 123.5156,394.1875 123.5156,392.4844 L123.5156,391.3906 C123.5156,389.6094 124.7656,388.2969 126.5,388.2969 C127.0781,388.2969 127.6875,388.4531 128.1563,388.7031 C128.6406,388.9844 128.8125,389.2031 128.9063,389.6094 C128.9688,390.0156 129,390.1406 129.1406,390.2656 C129.2813,390.4063 129.5156,390.5156 129.7344,390.5156 C130,390.5156 130.2656,390.375 130.4375,390.1563 C130.5469,390 130.5781,389.8125 130.5781,389.3906 L130.5781,387.9688 C130.5781,387.5313 130.5625,387.4063 130.4688,387.25 C130.3125,386.9844 130.0313,386.8438 129.7344,386.8438 C129.4375,386.8438 129.2344,386.9375 129.0156,387.25 L128.8438,387.1719 Z " fill="#000000"/><text fill="#000000" font-family="sans-serif" font-size="14" lengthAdjust="spacing" textLength="183" x="140.5" y="396.3467">OpenGLRenderCommand</text></g><!--MD5=[c30193056eb11c799f23d232713e596b]
class RenderCommand--><g id="elem_RenderCommand"><rect codeLine="24" fill="#F1F1F1" height="178.375" id="RenderCommand" rx="2.5" ry="2.5" style="stroke:#181818;stroke-width:0.5;" width="392" x="23" y="789"/><ellipse cx="152.25" cy="805" fill="#ADD1B2" rx="11" ry="11" style="stroke:#181818;stroke-width:1.0;"/><path d="M154.5938,800.6719 C153.6563,800.2344 153.0625,800.0938 152.1875,800.0938 C149.5625,800.0938 147.5625,802.1719 147.5625,804.8906 L147.5625,806.0156 C147.5625,808.5938 149.6719,810.4844 152.5625,810.4844 C153.7813,810.4844 154.9375,810.1875 155.6875,809.6406 C156.2656,809.2344 156.5938,808.7813 156.5938,808.3906 C156.5938,807.9375 156.2031,807.5469 155.7344,807.5469 C155.5156,807.5469 155.3125,807.625 155.125,807.8125 C154.6719,808.2969 154.6719,808.2969 154.4844,808.3906 C154.0625,808.6563 153.375,808.7813 152.6094,808.7813 C150.5625,808.7813 149.2656,807.6875 149.2656,805.9844 L149.2656,804.8906 C149.2656,803.1094 150.5156,801.7969 152.25,801.7969 C152.8281,801.7969 153.4375,801.9531 153.9063,802.2031 C154.3906,802.4844 154.5625,802.7031 154.6563,803.1094 C154.7188,803.5156 154.75,803.6406 154.8906,803.7656 C155.0313,803.9063 155.2656,804.0156 155.4844,804.0156 C155.75,804.0156 156.0156,803.875 156.1875,803.6563 C156.2969,803.5 156.3281,803.3125 156.3281,802.8906 L156.3281,801.4688 C156.3281,801.0313 156.3125,800.9063 156.2188,800.75 C156.0625,800.4844 155.7813,800.3438 155.4844,800.3438 C155.1875,800.3438 154.9844,800.4375 154.7656,800.75 L154.5938,800.6719 Z " fill="#000000"/><text fill="#000000" font-family="sans-serif" font-size="14" lengthAdjust="spacing" textLength="125" x="172.75" y="809.8467">RenderCommand</text><line style="stroke:#181818;stroke-width:0.5;" x1="24" x2="414" y1="821" y2="821"/><text fill="#000000" font-family="sans-serif" font-size="14" lengthAdjust="spacing" textLength="209" x="29" y="837.9951">static RenderAPI s_renderAPI</text><text fill="#000000" font-family="sans-serif" font-size="14" lengthAdjust="spacing" textLength="380" x="29" y="854.292">static RenderCommandImpl* s_renderCommandImpl</text><line style="stroke:#181818;stroke-width:0.5;" x1="24" x2="414" y1="861.5938" y2="861.5938"/><text fill="#000000" font-family="sans-serif" font-size="14" lengthAdjust="spacing" textLength="277" x="29" y="878.5889">static void Init() (determine api to use)</text><text fill="#000000" font-family="sans-serif" font-size="14" lengthAdjust="spacing" textLength="126" x="29" y="894.8857">static void Clear()</text><text fill="#000000" font-family="sans-serif" font-size="14" lengthAdjust="spacing" textLength="189" x="29" y="911.1826">static void SetClearColor()</text><text fill="#000000" font-family="sans-serif" font-size="14" lengthAdjust="spacing" textLength="212" x="29" y="927.4795">static void DrawVertexArray()</text><text fill="#000000" font-family="sans-serif" font-size="14" lengthAdjust="spacing" textLength="182" x="29" y="943.7764">static void DrawIndexed()</text><text fill="#000000" font-family="sans-serif" font-size="14" lengthAdjust="spacing" textLength="25" x="29" y="960.0732">...()</text></g><!--MD5=[afedf76cf48f4dd99de979ebc861ef07]
class WindowProvider--><g id="elem_WindowProvider"><rect codeLine="42" fill="#F1F1F1" height="88.8906" id="WindowProvider" rx="2.5" ry="2.5" style="stroke:#181818;stroke-width:0.5;" width="148" x="923" y="584"/><ellipse cx="938" cy="600" fill="#EB937F" rx="11" ry="11" style="stroke:#181818;stroke-width:1.0;"/><path d="M936.7969,600.875 L938.25,600.875 L938.25,600.9844 C938.25,601.3906 938.2813,601.5469 938.3594,601.7031 C938.5156,601.9531 938.7969,602.1094 939.0938,602.1094 C939.3438,602.1094 939.6094,601.9688 939.7656,601.75 C939.8906,601.5938 939.9219,601.4375 939.9219,600.9844 L939.9219,599.0625 C939.9219,598.9063 939.9219,598.8594 939.9063,598.7031 C939.8438,598.2344 939.5313,597.9219 939.0781,597.9219 C938.8281,597.9219 938.5625,598.0625 938.3906,598.2813 C938.2813,598.4531 938.25,598.6094 938.25,599.0625 L938.25,599.1875 L936.7969,599.1875 L936.7969,596.7813 L940.7813,596.7813 L940.7813,597.6406 C940.7813,598.0469 940.8125,598.2188 940.8906,598.375 C941.0625,598.625 941.3438,598.7813 941.625,598.7813 C941.8906,598.7813 942.1563,598.6406 942.3281,598.4219 C942.4375,598.25 942.4688,598.1094 942.4688,597.6406 L942.4688,595.0938 L934.8438,595.0938 C934.4063,595.0938 934.2813,595.1094 934.125,595.2031 C933.875,595.3594 933.7188,595.6563 933.7188,595.9375 C933.7188,596.2188 933.8594,596.4688 934.0781,596.6406 C934.2344,596.75 934.4219,596.7813 934.8438,596.7813 L935.0938,596.7813 L935.0938,603.2969 L934.8438,603.2969 C934.4375,603.2969 934.2813,603.3125 934.125,603.4219 C933.875,603.5938 933.7188,603.8594 933.7188,604.1563 C933.7188,604.4219 933.8594,604.6719 934.0781,604.8281 C934.2188,604.9531 934.4531,605 934.8438,605 L942.8438,605 L942.8438,602.4219 C942.8438,601.9844 942.8125,601.8438 942.7344,601.6875 C942.5625,601.4375 942.2813,601.2813 942,601.2813 C941.7344,601.2813 941.4688,601.3906 941.2969,601.6406 C941.1875,601.7969 941.1563,601.9375 941.1563,602.4219 L941.1563,603.2969 L936.7969,603.2969 L936.7969,600.875 Z " fill="#000000"/><text fill="#000000" font-family="sans-serif" font-size="14" lengthAdjust="spacing" textLength="116" x="952" y="604.8467">WindowProvider</text><line style="stroke:#181818;stroke-width:0.5;" x1="924" x2="1070" y1="616" y2="616"/><text fill="#000000" font-family="sans-serif" font-size="14" lengthAdjust="spacing" textLength="41" x="929" y="632.9951">GLFW</text><text fill="#000000" font-family="sans-serif" font-size="14" lengthAdjust="spacing" textLength="63" x="929" y="649.292">Windows</text><text fill="#000000" font-family="sans-serif" font-size="14" lengthAdjust="spacing" textLength="37" x="929" y="665.5889">Linux</text></g><!--MD5=[fa22f29c53ed6d2510bea2e0aa245b7f]
class Window--><g id="elem_Window"><rect codeLine="48" fill="#F1F1F1" height="145.7813" id="Window" rx="2.5" ry="2.5" style="stroke:#181818;stroke-width:0.5;" width="335" x="723.5" y="319"/><ellipse cx="858.75" cy="335" fill="#A9DCDF" rx="11" ry="11" style="stroke:#181818;stroke-width:1.0;"/><path d="M860.8281,336.8125 L861.2188,337.7969 L860.8281,337.7969 C860.375,337.7969 860.2656,337.8125 860.1094,337.9219 C859.8594,338.0781 859.7031,338.3594 859.7031,338.6563 C859.7031,338.9219 859.8438,339.1719 860.0625,339.3281 C860.2031,339.4531 860.4063,339.5 860.8281,339.5 L863.1875,339.5 C863.5469,339.5 863.7656,339.4688 863.9063,339.375 C864.1563,339.2344 864.3125,338.9375 864.3125,338.6563 C864.3125,338.375 864.1719,338.125 863.9531,337.9688 C863.7813,337.8281 863.625,337.7969 863.1563,337.7969 L859.7656,329.5938 L856.0938,329.5938 C855.6406,329.5938 855.5156,329.6094 855.3594,329.7031 C855.1094,329.875 854.9531,330.1563 854.9531,330.4375 C854.9531,330.7188 855.0938,330.9688 855.3125,331.1406 C855.4844,331.25 855.6563,331.2813 856.0938,331.2813 L857.1719,331.2813 L854.5313,337.7969 C854.1094,337.7969 853.9531,337.8125 853.7969,337.9219 C853.5469,338.0781 853.3906,338.3594 853.3906,338.6563 C853.3906,339.2188 853.7656,339.5 854.5156,339.5 L856.7813,339.5 C857.1406,339.5 857.3594,339.4688 857.4844,339.375 C857.75,339.2344 857.8906,338.9375 857.8906,338.6563 C857.8906,338.375 857.7656,338.125 857.5469,337.9531 C857.375,337.8281 857.2344,337.7969 856.7813,337.7969 L856.3906,337.7969 L856.7813,336.8125 L860.8281,336.8125 Z M860.125,335.1094 L857.4531,335.1094 L858.7969,331.8438 L860.125,335.1094 Z " fill="#000000"/><text fill="#000000" font-family="sans-serif" font-size="14" font-style="italic" lengthAdjust="spacing" textLength="56" x="879.25" y="339.8467">Window</text><line style="stroke:#181818;stroke-width:0.5;" x1="724.5" x2="1057.5" y1="351" y2="351"/><text fill="#000000" font-family="sans-serif" font-size="14" lengthAdjust="spacing" textLength="247" x="729.5" y="367.9951">WindowProvider s_windowProvider</text><text fill="#000000" font-family="sans-serif" font-size="14" lengthAdjust="spacing" textLength="193" x="729.5" y="384.292">RenderContext m_context</text><line style="stroke:#181818;stroke-width:0.5;" x1="724.5" x2="1057.5" y1="391.5938" y2="391.5938"/><text fill="#000000" font-family="sans-serif" font-size="14" lengthAdjust="spacing" textLength="323" x="729.5" y="408.5889">static void Init() (determine WindowProvider)</text><text fill="#000000" font-family="sans-serif" font-size="14" lengthAdjust="spacing" textLength="239" x="729.5" y="424.8857">static Window Create() (get impl)</text><text fill="#000000" font-family="sans-serif" font-size="14" lengthAdjust="spacing" textLength="129" x="729.5" y="441.1826">SetCallbackFunc()</text><text fill="#000000" font-family="sans-serif" font-size="14" lengthAdjust="spacing" textLength="242" x="729.5" y="457.4795">Update(poll events, swap buffers)</text></g><!--MD5=[aed1831ba43737c92454f69fe295c2ab]
class GLFWWindow--><g id="elem_GLFWWindow"><rect fill="#F1F1F1" height="32" id="GLFWWindow" rx="2.5" ry="2.5" style="stroke:#181818;stroke-width:0.5;" width="129" x="715.5" y="178.5"/><ellipse cx="730.5" cy="194.5" fill="#ADD1B2" rx="11" ry="11" style="stroke:#181818;stroke-width:1.0;"/><path d="M732.8438,190.1719 C731.9063,189.7344 731.3125,189.5938 730.4375,189.5938 C727.8125,189.5938 725.8125,191.6719 725.8125,194.3906 L725.8125,195.5156 C725.8125,198.0938 727.9219,199.9844 730.8125,199.9844 C732.0313,199.9844 733.1875,199.6875 733.9375,199.1406 C734.5156,198.7344 734.8438,198.2813 734.8438,197.8906 C734.8438,197.4375 734.4531,197.0469 733.9844,197.0469 C733.7656,197.0469 733.5625,197.125 733.375,197.3125 C732.9219,197.7969 732.9219,197.7969 732.7344,197.8906 C732.3125,198.1563 731.625,198.2813 730.8594,198.2813 C728.8125,198.2813 727.5156,197.1875 727.5156,195.4844 L727.5156,194.3906 C727.5156,192.6094 728.7656,191.2969 730.5,191.2969 C731.0781,191.2969 731.6875,191.4531 732.1563,191.7031 C732.6406,191.9844 732.8125,192.2031 732.9063,192.6094 C732.9688,193.0156 733,193.1406 733.1406,193.2656 C733.2813,193.4063 733.5156,193.5156 733.7344,193.5156 C734,193.5156 734.2656,193.375 734.4375,193.1563 C734.5469,193 734.5781,192.8125 734.5781,192.3906 L734.5781,190.9688 C734.5781,190.5313 734.5625,190.4063 734.4688,190.25 C734.3125,189.9844 734.0313,189.8438 733.7344,189.8438 C733.4375,189.8438 733.2344,189.9375 733.0156,190.25 L732.8438,190.1719 Z " fill="#000000"/><text fill="#000000" font-family="sans-serif" font-size="14" lengthAdjust="spacing" textLength="97" x="744.5" y="199.3467">GLFWWindow</text></g><!--MD5=[4fb1a2b20eeb48a15caed73f9e9463dc]
class RenderContext--><g id="elem_RenderContext"><rect codeLine="59" fill="#F1F1F1" height="121.4844" id="RenderContext" rx="2.5" ry="2.5" style="stroke:#181818;stroke-width:0.5;" width="306" x="880" y="134"/><ellipse cx="975.25" cy="150" fill="#A9DCDF" rx="11" ry="11" style="stroke:#181818;stroke-width:1.0;"/><path d="M977.3281,151.8125 L977.7188,152.7969 L977.3281,152.7969 C976.875,152.7969 976.7656,152.8125 976.6094,152.9219 C976.3594,153.0781 976.2031,153.3594 976.2031,153.6563 C976.2031,153.9219 976.3438,154.1719 976.5625,154.3281 C976.7031,154.4531 976.9063,154.5 977.3281,154.5 L979.6875,154.5 C980.0469,154.5 980.2656,154.4688 980.4063,154.375 C980.6563,154.2344 980.8125,153.9375 980.8125,153.6563 C980.8125,153.375 980.6719,153.125 980.4531,152.9688 C980.2813,152.8281 980.125,152.7969 979.6563,152.7969 L976.2656,144.5938 L972.5938,144.5938 C972.1406,144.5938 972.0156,144.6094 971.8594,144.7031 C971.6094,144.875 971.4531,145.1563 971.4531,145.4375 C971.4531,145.7188 971.5938,145.9688 971.8125,146.1406 C971.9844,146.25 972.1563,146.2813 972.5938,146.2813 L973.6719,146.2813 L971.0313,152.7969 C970.6094,152.7969 970.4531,152.8125 970.2969,152.9219 C970.0469,153.0781 969.8906,153.3594 969.8906,153.6563 C969.8906,154.2188 970.2656,154.5 971.0156,154.5 L973.2813,154.5 C973.6406,154.5 973.8594,154.4688 973.9844,154.375 C974.25,154.2344 974.3906,153.9375 974.3906,153.6563 C974.3906,153.375 974.2656,153.125 974.0469,152.9531 C973.875,152.8281 973.7344,152.7969 973.2813,152.7969 L972.8906,152.7969 L973.2813,151.8125 L977.3281,151.8125 Z M976.625,150.1094 L973.9531,150.1094 L975.2969,146.8438 L976.625,150.1094 Z " fill="#000000"/><text fill="#000000" font-family="sans-serif" font-size="14" font-style="italic" lengthAdjust="spacing" textLength="107" x="995.75" y="154.8467">RenderContext</text><line style="stroke:#181818;stroke-width:0.5;" x1="881" x2="1185" y1="166" y2="166"/><text fill="#000000" font-family="sans-serif" font-size="14" lengthAdjust="spacing" textLength="294" x="886" y="182.9951">static RenderContext Create() (get impl)</text><text fill="#000000" font-family="sans-serif" font-size="14" lengthAdjust="spacing" textLength="133" x="886" y="199.292">PreWindowSetup()</text><text fill="#000000" font-family="sans-serif" font-size="14" lengthAdjust="spacing" textLength="212" x="886" y="215.5889">PostWindowSetup(Window w)</text><text fill="#000000" font-family="sans-serif" font-size="14" lengthAdjust="spacing" textLength="217" x="886" y="231.8857">SetCurrentWindow(Window w)</text><text fill="#000000" font-family="sans-serif" font-size="14" lengthAdjust="spacing" textLength="153" x="886" y="248.1826">SwapBuffers(window)</text></g><!--MD5=[c0a9c1b9f273529cdc26b70cdb388876]
class OpenGLGLFWRenderContext--><g id="elem_OpenGLGLFWRenderContext"><rect fill="#F1F1F1" height="32" id="OpenGLGLFWRenderContext" rx="2.5" ry="2.5" style="stroke:#181818;stroke-width:0.5;" width="242" x="912" y="42"/><ellipse cx="927" cy="58" fill="#ADD1B2" rx="11" ry="11" style="stroke:#181818;stroke-width:1.0;"/><path d="M929.3438,53.6719 C928.4063,53.2344 927.8125,53.0938 926.9375,53.0938 C924.3125,53.0938 922.3125,55.1719 922.3125,57.8906 L922.3125,59.0156 C922.3125,61.5938 924.4219,63.4844 927.3125,63.4844 C928.5313,63.4844 929.6875,63.1875 930.4375,62.6406 C931.0156,62.2344 931.3438,61.7813 931.3438,61.3906 C931.3438,60.9375 930.9531,60.5469 930.4844,60.5469 C930.2656,60.5469 930.0625,60.625 929.875,60.8125 C929.4219,61.2969 929.4219,61.2969 929.2344,61.3906 C928.8125,61.6563 928.125,61.7813 927.3594,61.7813 C925.3125,61.7813 924.0156,60.6875 924.0156,58.9844 L924.0156,57.8906 C924.0156,56.1094 925.2656,54.7969 927,54.7969 C927.5781,54.7969 928.1875,54.9531 928.6563,55.2031 C929.1406,55.4844 929.3125,55.7031 929.4063,56.1094 C929.4688,56.5156 929.5,56.6406 929.6406,56.7656 C929.7813,56.9063 930.0156,57.0156 930.2344,57.0156 C930.5,57.0156 930.7656,56.875 930.9375,56.6563 C931.0469,56.5 931.0781,56.3125 931.0781,55.8906 L931.0781,54.4688 C931.0781,54.0313 931.0625,53.9063 930.9688,53.75 C930.8125,53.4844 930.5313,53.3438 930.2344,53.3438 C929.9375,53.3438 929.7344,53.4375 929.5156,53.75 L929.3438,53.6719 Z " fill="#000000"/><text fill="#000000" font-family="sans-serif" font-size="14" lengthAdjust="spacing" textLength="210" x="941" y="62.8467">OpenGLGLFWRenderContext</text></g><!--MD5=[0b4e4b4980470ea387cc45de9bd14b5b]
class Application--><g id="elem_Application"><rect codeLine="76" fill="#F1F1F1" height="194.6719" id="Application" rx="2.5" ry="2.5" style="stroke:#181818;stroke-width:0.5;" width="172" x="479" y="532"/><ellipse cx="521" cy="548" fill="#A9DCDF" rx="11" ry="11" style="stroke:#181818;stroke-width:1.0;"/><path d="M523.0781,549.8125 L523.4688,550.7969 L523.0781,550.7969 C522.625,550.7969 522.5156,550.8125 522.3594,550.9219 C522.1094,551.0781 521.9531,551.3594 521.9531,551.6563 C521.9531,551.9219 522.0938,552.1719 522.3125,552.3281 C522.4531,552.4531 522.6563,552.5 523.0781,552.5 L525.4375,552.5 C525.7969,552.5 526.0156,552.4688 526.1563,552.375 C526.4063,552.2344 526.5625,551.9375 526.5625,551.6563 C526.5625,551.375 526.4219,551.125 526.2031,550.9688 C526.0313,550.8281 525.875,550.7969 525.4063,550.7969 L522.0156,542.5938 L518.3438,542.5938 C517.8906,542.5938 517.7656,542.6094 517.6094,542.7031 C517.3594,542.875 517.2031,543.1563 517.2031,543.4375 C517.2031,543.7188 517.3438,543.9688 517.5625,544.1406 C517.7344,544.25 517.9063,544.2813 518.3438,544.2813 L519.4219,544.2813 L516.7813,550.7969 C516.3594,550.7969 516.2031,550.8125 516.0469,550.9219 C515.7969,551.0781 515.6406,551.3594 515.6406,551.6563 C515.6406,552.2188 516.0156,552.5 516.7656,552.5 L519.0313,552.5 C519.3906,552.5 519.6094,552.4688 519.7344,552.375 C520,552.2344 520.1406,551.9375 520.1406,551.6563 C520.1406,551.375 520.0156,551.125 519.7969,550.9531 C519.625,550.8281 519.4844,550.7969 519.0313,550.7969 L518.6406,550.7969 L519.0313,549.8125 L523.0781,549.8125 Z M522.375,548.1094 L519.7031,548.1094 L521.0469,544.8438 L522.375,548.1094 Z " fill="#000000"/><text fill="#000000" font-family="sans-serif" font-size="14" font-style="italic" lengthAdjust="spacing" textLength="80" x="541" y="552.8467">Application</text><line style="stroke:#181818;stroke-width:0.5;" x1="480" x2="650" y1="564" y2="564"/><text fill="#000000" font-family="sans-serif" font-size="14" lengthAdjust="spacing" textLength="74" x="485" y="580.9951">m_window</text><text fill="#000000" font-family="sans-serif" font-size="14" lengthAdjust="spacing" textLength="108" x="485" y="597.292">m_eventQueue</text><line style="stroke:#181818;stroke-width:0.5;" x1="480" x2="650" y1="604.5938" y2="604.5938"/><text fill="#000000" font-family="sans-serif" font-size="14" lengthAdjust="spacing" textLength="160" x="485" y="621.5889">MainOnEvent(Event e)</text><text fill="#000000" font-family="sans-serif" font-size="14" lengthAdjust="spacing" textLength="115" x="485" y="637.8857">MainOnUpdate()</text><text fill="#000000" font-family="sans-serif" font-size="14" lengthAdjust="spacing" textLength="4" x="485" y="654.1826"> </text><text fill="#000000" font-family="sans-serif" font-size="14" lengthAdjust="spacing" textLength="133" x="485" y="670.4795">Run() (Entry point)</text><text fill="#000000" font-family="sans-serif" font-size="14" lengthAdjust="spacing" textLength="4" x="485" y="686.7764"> </text><text fill="#000000" font-family="sans-serif" font-size="14" lengthAdjust="spacing" textLength="155" x="485" y="703.0732">OnEvent(Event e) = 0</text><text fill="#000000" font-family="sans-serif" font-size="14" lengthAdjust="spacing" textLength="110" x="485" y="719.3701">OnUpdate() = 0</text></g><!--MD5=[5b5f36549dd105574561fd01123f0799]
class UserApplication--><g id="elem_UserApplication"><rect codeLine="91" fill="#F1F1F1" height="72.5938" id="UserApplication" rx="2.5" ry="2.5" style="stroke:#181818;stroke-width:0.5;" width="146" x="492" y="355"/><ellipse cx="507" cy="371" fill="#ADD1B2" rx="11" ry="11" style="stroke:#181818;stroke-width:1.0;"/><path d="M509.3438,366.6719 C508.4063,366.2344 507.8125,366.0938 506.9375,366.0938 C504.3125,366.0938 502.3125,368.1719 502.3125,370.8906 L502.3125,372.0156 C502.3125,374.5938 504.4219,376.4844 507.3125,376.4844 C508.5313,376.4844 509.6875,376.1875 510.4375,375.6406 C511.0156,375.2344 511.3438,374.7813 511.3438,374.3906 C511.3438,373.9375 510.9531,373.5469 510.4844,373.5469 C510.2656,373.5469 510.0625,373.625 509.875,373.8125 C509.4219,374.2969 509.4219,374.2969 509.2344,374.3906 C508.8125,374.6563 508.125,374.7813 507.3594,374.7813 C505.3125,374.7813 504.0156,373.6875 504.0156,371.9844 L504.0156,370.8906 C504.0156,369.1094 505.2656,367.7969 507,367.7969 C507.5781,367.7969 508.1875,367.9531 508.6563,368.2031 C509.1406,368.4844 509.3125,368.7031 509.4063,369.1094 C509.4688,369.5156 509.5,369.6406 509.6406,369.7656 C509.7813,369.9063 510.0156,370.0156 510.2344,370.0156 C510.5,370.0156 510.7656,369.875 510.9375,369.6563 C511.0469,369.5 511.0781,369.3125 511.0781,368.8906 L511.0781,367.4688 C511.0781,367.0313 511.0625,366.9063 510.9688,366.75 C510.8125,366.4844 510.5313,366.3438 510.2344,366.3438 C509.9375,366.3438 509.7344,366.4375 509.5156,366.75 L509.3438,366.6719 Z " fill="#000000"/><text fill="#000000" font-family="sans-serif" font-size="14" lengthAdjust="spacing" textLength="114" x="521" y="375.8467">UserApplication</text><line style="stroke:#181818;stroke-width:0.5;" x1="493" x2="637" y1="387" y2="387"/><text fill="#000000" font-family="sans-serif" font-size="14" lengthAdjust="spacing" textLength="127" x="498" y="403.9951">OnEvent(Event e)</text><text fill="#000000" font-family="sans-serif" font-size="14" lengthAdjust="spacing" textLength="82" x="498" y="420.292">OnUpdate()</text></g><!--MD5=[f0fbb25e78297b96622b755f505462e8]
class RenderAPI--><g id="elem_RenderAPI"><rect codeLine="7" fill="#F1F1F1" height="72.5938" id="RenderAPI" rx="2.5" ry="2.5" style="stroke:#181818;stroke-width:0.5;" width="107" x="1218.5" y="355"/><ellipse cx="1233.5" cy="371" fill="#EB937F" rx="11" ry="11" style="stroke:#181818;stroke-width:1.0;"/><path d="M1232.2969,371.875 L1233.75,371.875 L1233.75,371.9844 C1233.75,372.3906 1233.7813,372.5469 1233.8594,372.7031 C1234.0156,372.9531 1234.2969,373.1094 1234.5938,373.1094 C1234.8438,373.1094 1235.1094,372.9688 1235.2656,372.75 C1235.3906,372.5938 1235.4219,372.4375 1235.4219,371.9844 L1235.4219,370.0625 C1235.4219,369.9063 1235.4219,369.8594 1235.4063,369.7031 C1235.3438,369.2344 1235.0313,368.9219 1234.5781,368.9219 C1234.3281,368.9219 1234.0625,369.0625 1233.8906,369.2813 C1233.7813,369.4531 1233.75,369.6094 1233.75,370.0625 L1233.75,370.1875 L1232.2969,370.1875 L1232.2969,367.7813 L1236.2813,367.7813 L1236.2813,368.6406 C1236.2813,369.0469 1236.3125,369.2188 1236.3906,369.375 C1236.5625,369.625 1236.8438,369.7813 1237.125,369.7813 C1237.3906,369.7813 1237.6563,369.6406 1237.8281,369.4219 C1237.9375,369.25 1237.9688,369.1094 1237.9688,368.6406 L1237.9688,366.0938 L1230.3438,366.0938 C1229.9063,366.0938 1229.7813,366.1094 1229.625,366.2031 C1229.375,366.3594 1229.2188,366.6563 1229.2188,366.9375 C1229.2188,367.2188 1229.3594,367.4688 1229.5781,367.6406 C1229.7344,367.75 1229.9219,367.7813 1230.3438,367.7813 L1230.5938,367.7813 L1230.5938,374.2969 L1230.3438,374.2969 C1229.9375,374.2969 1229.7813,374.3125 1229.625,374.4219 C1229.375,374.5938 1229.2188,374.8594 1229.2188,375.1563 C1229.2188,375.4219 1229.3594,375.6719 1229.5781,375.8281 C1229.7188,375.9531 1229.9531,376 1230.3438,376 L1238.3438,376 L1238.3438,373.4219 C1238.3438,372.9844 1238.3125,372.8438 1238.2344,372.6875 C1238.0625,372.4375 1237.7813,372.2813 1237.5,372.2813 C1237.2344,372.2813 1236.9688,372.3906 1236.7969,372.6406 C1236.6875,372.7969 1236.6563,372.9375 1236.6563,373.4219 L1236.6563,374.2969 L1232.2969,374.2969 L1232.2969,371.875 Z " fill="#000000"/><text fill="#000000" font-family="sans-serif" font-size="14" lengthAdjust="spacing" textLength="75" x="1247.5" y="375.8467">RenderAPI</text><line style="stroke:#181818;stroke-width:0.5;" x1="1219.5" x2="1324.5" y1="387" y2="387"/><text fill="#000000" font-family="sans-serif" font-size="14" lengthAdjust="spacing" textLength="58" x="1224.5" y="403.9951">OpenGL</text><text fill="#000000" font-family="sans-serif" font-size="14" lengthAdjust="spacing" textLength="55" x="1224.5" y="420.292">DirectX</text></g><!--MD5=[8177d36001cc1c2f6f532fbe1e54c953]
link OpenGLRenderCommand to RenderCommandImpl--><g id="link_OpenGLRenderCommand_RenderCommandImpl"><path codeLine="22" d="M219,407.558 C219,435.381 219,496.646 219,547.467 " fill="none" id="OpenGLRenderCommand-to-RenderCommandImpl" style="stroke:#181818;stroke-width:1.0;"/><polygon fill="none" points="226,547.763,219,567.763,212,547.763,226,547.763" style="stroke:#181818;stroke-width:1.0;"/></g><!--MD5=[341f7524c68eab506fab9a017b98c8fa]
link RenderCommandImpl to RenderCommand--><g id="link_RenderCommandImpl_RenderCommand"><path codeLine="36" d="M219,689.097 C219,715.022 219,746.138 219,775.522 " fill="none" id="RenderCommandImpl-to-RenderCommand" style="stroke:#181818;stroke-width:1.0;"/><polygon fill="#181818" points="219,788.876,223,782.876,219,776.876,215,782.876,219,788.876" style="stroke:#181818;stroke-width:1.0;"/></g><!--MD5=[c3fb756e2d996e360d44d5908f70ea4e]
link RenderAPI to RenderCommand--><g id="link_RenderAPI_RenderCommand"><path codeLine="37" d="M1277.27,428.276 C1285.78,501.234 1293.36,667.508 1202,753 C1145.66,805.724 685.352,845.458 415.062,864.508 " fill="none" id="RenderAPI-RenderCommand" style="stroke:#181818;stroke-width:1.0;"/></g><!--MD5=[5eee5d98badd7c2da03fbe1ba3c07606]
link GLFWWindow to Window--><g id="link_GLFWWindow_Window"><path codeLine="57" d="M788.71,210.801 C799.497,229.752 818.774,263.616 837.707,296.878 " fill="none" id="GLFWWindow-to-Window" style="stroke:#181818;stroke-width:1.0;"/><polygon fill="none" points="844.021,293.819,847.831,314.663,831.854,300.745,844.021,293.819" style="stroke:#181818;stroke-width:1.0;"/></g><!--MD5=[a9d54570610dcb72a10030c5165b8f11]
link OpenGLGLFWRenderContext to RenderContext--><g id="link_OpenGLGLFWRenderContext_RenderContext"><path codeLine="67" d="M1033,74.167 C1033,84.342 1033,98.615 1033,113.765 " fill="none" id="OpenGLGLFWRenderContext-to-RenderContext" style="stroke:#181818;stroke-width:1.0;"/><polygon fill="none" points="1040,113.914,1033,133.914,1026,113.914,1040,113.914" style="stroke:#181818;stroke-width:1.0;"/></g><!--MD5=[54ec7219b1a27aee5c9e1f4c2c713d6f]
link RenderContext to Window--><g id="link_RenderContext_Window"><path codeLine="68" d="M989.624,255.066 C978.384,270.502 966.049,287.44 954.024,303.954 " fill="none" id="RenderContext-to-Window" style="stroke:#181818;stroke-width:1.0;"/><polygon fill="#181818" points="946.18,314.724,952.9456,312.2286,953.2443,305.0237,946.4787,307.5191,946.18,314.724" style="stroke:#181818;stroke-width:1.0;"/></g><!--MD5=[7a7edecceee628eb7bd94064d5a16e13]
link Window to WindowProvider--><g id="link_Window_WindowProvider"><path codeLine="69" d="M925.123,468.149 C942.371,506.389 962.688,551.432 977.314,583.855 " fill="none" id="Window-WindowProvider" style="stroke:#181818;stroke-width:1.0;"/></g><!--MD5=[d461ba1bb35d1d8ff9cf2c97b88126fd]
link RenderContext to WindowProvider--><g id="link_RenderContext_WindowProvider"><path codeLine="70" d="M1064.79,255.295 C1072.67,273.05 1080,292.875 1084,312 C1098.2,379.863 1101.13,400.816 1084,468 C1073.24,510.179 1048.8,553.233 1028.56,583.961 " fill="none" id="RenderContext-WindowProvider" style="stroke:#181818;stroke-width:1.0;"/></g><!--MD5=[314b14d7cda553b7cb05d65daa3370b5]
link RenderContext to RenderAPI--><g id="link_RenderContext_RenderAPI"><path codeLine="71" d="M1128.08,255.17 C1153.03,272.381 1179.29,291.957 1202,312 C1216.65,324.928 1231.28,340.763 1243.35,354.816 " fill="none" id="RenderContext-RenderAPI" style="stroke:#181818;stroke-width:1.0;"/></g><!--MD5=[9307151fa95b6811dc58b73271fdb766]
link Window to Application--><g id="link_Window_Application"><path codeLine="89" d="M723,452.5 C645.435,452.5 727.4,608.903 657.313,616.234 " fill="none" id="Window-to-Application" style="stroke:#181818;stroke-width:1.0;"/><polygon fill="#181818" points="652,616.5,661.1887,620.045,656.9937,616.25,660.7888,612.0551,652,616.5" style="stroke:#181818;stroke-width:1.0;"/></g><!--MD5=[9307151fa95b6811dc58b73271fdb766]
link Window to Application--><g id="link_Window_Application"><path codeLine="97" d="M783.034,468.009 C755.536,487.429 726.098,508.381 699,528 C689.52,534.863 679.696,542.038 669.872,549.254 " fill="none" id="Window-to-Application-1" style="stroke:#181818;stroke-width:1.0;"/><polygon fill="#181818" points="659.228,557.089,666.4313,556.7541,668.8926,549.976,661.6893,550.311,659.228,557.089" style="stroke:#181818;stroke-width:1.0;"/></g><!--MD5=[f70dcae33b69be9412e75560d1fdcc32]
link UserApplication to Application--><g id="link_UserApplication_Application"><path codeLine="96" d="M565,428.191 C565,449.787 565,478.701 565,507.795 " fill="none" id="UserApplication-to-Application" style="stroke:#181818;stroke-width:1.0;"/><polygon fill="none" points="572,507.879,565,527.879,558,507.879,572,507.879" style="stroke:#181818;stroke-width:1.0;"/></g><!--MD5=[ab19cb8cb90b152933b94d87bb8e2957]
link Application to RenderCommand--><g id="link_Application_RenderCommand"><path codeLine="98" d="M470.908,720.822 C457.864,732.101 444.353,743.122 431,753 C414.375,765.299 396.44,777.389 378.288,788.907 " fill="none" id="Application-RenderCommand" style="stroke:#181818;stroke-width:1.0;"/></g><!--MD5=[a51dc5ff01743c512bf8029c20f14f4f]
@startuml
hide empty members
hide empty methods
skinparam packageStyle Frame
skinparam PackageBackgroundColor Lavender


enum RenderAPI {
        OpenGL    
        DirectX
    }


package Render {
    interface RenderCommandImpl {
        void Clear()
        void SetClearColor()
        void DrawVertexArray()
        void DrawIndexed()
        ...()
    }

    OpenGLRenderCommand - -|> RenderCommandImpl

    class RenderCommand {
        static RenderAPI s_renderAPI
        static RenderCommandImpl* s_renderCommandImpl

        static void Init() (determine api to use)
        static void Clear()
        static void SetClearColor()
        static void DrawVertexArray()
        static void DrawIndexed()
        ...()
    }

    RenderCommandImpl - -* RenderCommand
    RenderAPI - - RenderCommand
}


package Window {
    enum WindowProvider {
        GLFW
        Windows
        Linux
    }

    abstract class Window {
        WindowProvider s_windowProvider
        RenderContext m_context
        static void Init() (determine WindowProvider)
        static Window Create() (get impl)
        SetCallbackFunc()
        Update(poll events, swap buffers)
    }

    GLFWWindow - -|> Window

    abstract class RenderContext {
        static RenderContext Create() (get impl)
        PreWindowSetup()
        PostWindowSetup(Window w)
        SetCurrentWindow(Window w)
        SwapBuffers(window)
    }

    OpenGLGLFWRenderContext - -|> RenderContext
    RenderContext - -* Window
    Window - - WindowProvider
    RenderContext - - WindowProvider
    RenderContext - - RenderAPI 
}


package Application {
    abstract class Application {
        m_window
        m_eventQueue

        MainOnEvent(Event e)
        MainOnUpdate()

        Run() (Entry point)

        OnEvent(Event e) = 0
        OnUpdate() = 0
    }

    Window::Update - -> Application::MainOnEvent

    class UserApplication {
        OnEvent(Event e)
        OnUpdate()
    }

    UserApplication - -|> Application
    Window - -* Application
    Application - - RenderCommand
}
@enduml

PlantUML version 1.2022.7beta2(Unknown compile time)
(GPL source distribution)
Java Runtime: Java(TM) SE Runtime Environment
JVM: Java HotSpot(TM) 64-Bit Server VM
Default Encoding: UTF-8
Language: en
Country: US
--></g></svg>